name 900006_16rea_lsw
datacolumns 54
datarows 4
range 0.9466666640000016 0.9784166639000017
cursor 1.0 1.0 0.0
keys m_key
wrap
enforce_loops no
enforce_constraints no
calc_derivatives 0.010583
event_color 1.000000 0.000000 1.000000
endheader

time	calcn_r_tx	calcn_r_ty	calcn_r_tz	calcn_r_r1	calcn_r_r2	calcn_r_r3	calcn_l_tx	calcn_l_ty	calcn_l_tz	calcn_l_r1	calcn_l_r2	calcn_l_r3	pelvis_tz	pelvis_tx	pelvis_ty	pelvis_tilt	pelvis_list	pelvis_rotation	hip_flexion_r	hip_adduction_r	hip_rotation_r	knee_angle_r	ankle_angle_r	subtalar_angle_r	mtp_angle_r	hip_flexion_l	hip_adduction_l	hip_rotation_l	knee_angle_l	ankle_angle_l	subtalar_angle_l	mtp_angle_l	lumbar_extension	lumbar_bending	lumbar_rotation	ground_force_px	ground_force_py	ground_force_pz	ground_force_vx	ground_force_vy	ground_force_vz	ground_force_px	ground_force_py	ground_force_pz	ground_force_vx	ground_force_vy	ground_force_vz	ground_torque_x	ground_torque_y	ground_torque_z	ground_torque_x	ground_torque_y	ground_torque_z	
      0.9466666640000016	      1.9430974866324753	      0.0388655626005509	     -0.2060966136993794	      3.3266854216824218	      3.8732965366822323	     -2.2233823914432702	      1.8072695567945922	      0.1474064406014308	     -0.3091443003732639	     -1.0866280587502142	      6.8397059186354561	    -35.1003137305967740	     -0.2550238737289624	      2.0639253360386389	      0.8398402251802206	      2.5285555522873504	      1.5118015980264325	      3.6186099790900950	      2.5428542091141559	      2.6124910175760103	      0.7547926263241824	    -11.8472900594470170	      4.7732984624007768	      0.0000000000000000	      0.0000000000000000	     11.6419831548542110	      1.3877982339430217	     -4.1806665262359903	    -52.1340218446798720	      2.7297034958890234	      0.0000000000000000	      0.0000000000000000	     -8.8661065939424653	      1.3860250088843065	     -4.9011852675037257	      2.0367154342465832	      0.0000000000000000	     -0.2211142255448202	    -16.7876878574034410	    406.3565602429678700	     -8.8176964336447377	      1.6445082967416624	      0.0000000000000000	     -0.2738350003592119	      0.0000000421542750	     -0.0000000746639889	     -0.0000000020866037	      0.0000000000000000	      0.5191067825619633	      0.0000000000000000	      0.0000000000000000	      0.0000000016430563	      0.0000000000000000	
      0.9572499973000016	      1.9428042410532507	      0.0389833171794407	     -0.2064407451578368	      3.3095961470251183	      3.6156704566832931	     -2.2713450600700917	      1.8317001277806639	      0.1382601123647782	     -0.3119613536816724	     -1.1383038634003644	      6.2111313459707187	    -31.6761823700525230	     -0.2549914753982993	      2.0714253769321149	      0.8401395181327553	      2.5661464887030738	      1.6736076633959762	      3.5541785154985939	      1.7179851777266266	      2.4711921808918089	      0.6691947218201497	    -11.5590843929471050	      5.2209494545025574	      0.0000000000000000	      0.0000000000000000	     12.5789743647780430	      1.6215057398621417	     -3.9579677444002042	    -50.9099088975579760	      3.9766963397035613	      0.0000000000000000	      0.0000000000000000	     -9.0688772689628721	      1.1120302703602432	     -4.7033093021692505	      2.0419117792095611	      0.0000000000000000	     -0.2219197161651391	    -16.1705118183787210	    400.5988545935145500	     -9.3933809526712988	      1.6453700523775054	      0.0000000000000000	     -0.2739052157029313	     -0.0000000009926489	      0.0000000399853279	     -0.0000000024387726	      0.0000000000000000	      0.5022097834926167	      0.0000000000000000	      0.0000000000000000	     -0.0000000003981235	      0.0000000000000000	
      0.9678333306000017	      1.9425223117813526	      0.0391240432281313	     -0.2068285475576484	      3.2827086422662224	      3.3014877235752449	     -2.3222837043814399	      1.8570523819757445	      0.1287558982809954	     -0.3148632277570316	     -1.1522759195164742	      5.5696665408853967	    -28.2063299089802340	     -0.2549359408141981	      2.0788895889853429	      0.8402824058165650	      2.5788971392016595	      1.8090186183897830	      3.4266758177661805	      0.9585398843359643	      2.3475892714680375	      0.5863042449932012	    -11.3228767227421270	      5.6770923456728974	      0.0000000000000000	      0.0000000000000000	     13.4650072147066610	      1.8305245813787259	     -3.7565336074744504	    -49.4284598503011240	      5.0937475275457542	      0.0000000000000000	      0.0000000000000000	     -9.2371075878559843	      0.8671743152349706	     -4.4039422045591454	      2.0472719309018310	      0.0000000000000000	     -0.2226746463517679	    -15.6269567895815060	    397.2145278922720300	     -9.5814826098368524	      1.6462716560437445	      0.0000000000000000	     -0.2739723479242956	     -0.0000000038970632	     -0.0000000030734288	      0.0000000008421580	      0.0000000000000000	      0.5073442901998841	      0.0000000000000000	      0.0000000000000000	     -0.0000000000580974	      0.0000000000000000	
      0.9784166639000017	      1.9422710180409604	      0.0392390003549278	     -0.2072868425198724	      3.2455355572145099	      2.9376542610717347	     -2.3539968117105339	      1.8832809338352885	      0.1191058474213254	     -0.3177843026520693	     -1.1279821250849233	      4.9440476251205263	    -24.7354790276331330	     -0.2548359365145652	      2.0863247520458490	      0.8402483718111131	      2.5613195385053040	      1.9272645855014723	      3.2362305728499763	      0.2714503149319087	      2.2346028385868051	      0.5179900772720171	    -11.1415300164504490	      6.1655548235167759	      0.0000000000000000	      0.0000000000000000	     14.3040977590859730	      2.0117160249555570	     -3.5953314065253168	    -47.7077842044874670	      6.0535940354751636	      0.0000000000000000	      0.0000000000000000	     -9.3633024863492569	      0.6346896001645114	     -4.0121499121417665	      2.0525190032654130	      0.0000000000000000	     -0.2233356936811982	    -15.0535983814211590	    396.2971768004325700	     -9.5173453956443570	      1.6472347853100178	      0.0000000000000000	     -0.2740604267864221	      0.0000000011320090	     -0.0000000031515534	      0.0000000000185852	      0.0000000000000000	      0.5327542418771213	      0.0000000000000000	      0.0000000000000000	      0.0000000000549029	      0.0000000000000000	
